# xmcd CD database file
#
# Track frame offsets:
#	150
#	11320
#	29413
#	43738
#	56293
#	73410
#	89753
#	103033
#	117470
#	129745
#	145508
#	160115
#	174570
#	192250
#
# Disc length: 2739 seconds
#
# Revision: 0
# Processed by: cddbd v1.5.1PL0 Copyright (c) Steve Scherf et al.
# Submitted via: CDex 1.60beta1
#
DISCID=c40ab10e
DTITLE=Various Artist - Spotlight Country Vol. 13
DYEAR=1993
DGENRE=Country
TTITLE0=Alan Jackson/Chattahoochee
TTITLE1=Billy Ray Cyrus/In The Heart Of A Woman
TTITLE2=Gibson-Miller Band/Texas Tattoo
TTITLE3=Ricky Lynn Gregg/Can You Feel It
TTITLE4=Joe Diffie/Prop Me Up Beside The Jukebox
TTITLE5=Radney Foster/Easier Said Than Done
TTITLE6=Mark Collie/Shame Shame Shame
TTITLE7=Steve Wariner/If I Didn't Love You
TTITLE8=Diamond Rio/This Romeo Ain't Got Julie Yet
TTITLE9=Aaron Tippin/Working Man's Ph.D
TTITLE10=Shenandoah/Janie Baker's Love Slave
TTITLE11=Doug Stone/Why Didn't I Think Of That
TTITLE12=Trisha Yearwood/Down On My Knees
TTITLE13=Mark Chesnutt/It Sure Is Monday
EXTD=YEAR: 1993
EXTT0=
EXTT1=
EXTT2=
EXTT3=
EXTT4=
EXTT5=
EXTT6=
EXTT7=
EXTT8=
EXTT9=
EXTT10=
EXTT11=
EXTT12=
EXTT13=
PLAYORDER=
